<svg width="1698" height="1051" viewBox="0 0 1698 1051" fill="none" xmlns="http://www.w3.org/2000/svg">
<path opacity="0.9" d="M900.115 0.784202C983.328 126.159 968.747 300.913 861.226 408.197C778.013 282.822 792.594 108.068 900.115 0.784202Z" fill="#4200FF" stroke="black"/>
<path opacity="0.9" d="M497.95 395.905C605.721 294.227 769.512 291.733 880.189 395.287C772.418 496.965 608.627 499.493 497.95 395.905Z" fill="#4200FF" stroke="black"/>
<path d="M738.591 665.162V542.923L1007.52 254.786H1121.58C1161.14 254.786 1193.31 289.207 1193.31 331.682V449.052C1193.31 491.528 1161.14 525.949 1121.58 525.949H992.11H991.61V526.449V665.162C991.61 707.638 959.436 742.059 919.873 742.059H810.328C770.765 742.059 738.591 707.67 738.591 665.162Z" fill="#4200FF" stroke="black"/>
<path opacity="0.8" d="M722.542 14.1264C850.32 84.2449 912.601 246.548 863.304 394.887C735.527 324.768 673.245 162.465 722.542 14.1264Z" fill="#FF5C00" stroke="black"/>
<path opacity="0.9" d="M513.029 243.951C649.294 195.52 800.974 261.762 865.108 403.462C728.842 451.926 577.162 385.651 513.029 243.951Z" fill="#FF5C00" stroke="black"/>
<path opacity="0.9" d="M610.929 89.3418C753.404 108.086 863.984 237.546 865.282 395.043C722.807 376.266 612.227 246.807 610.929 89.3418Z" fill="#4200FF" stroke="black"/>
<path d="M152.558 991.288C140.295 967.919 134.56 956.577 129.709 945.693C125.256 956.577 119.551 967.69 107.288 991.059L84.6528 1034.14C79.5584 1043.88 71.9625 1050.25 60.5229 1050.25C49.5104 1050.25 39.7792 1043.45 35.966 1029.4L0 896.045H43.8059L57.1368 948.896C61.5906 965.892 64.5497 978.378 66.6545 990.634C71.3219 979.979 76.8129 968.409 86.5441 948.7L105.58 910.59C112.992 895.62 120.192 893.594 130.564 893.594C141.149 893.594 148.562 895.62 155.975 910.59L174.827 948.929C185.412 969.781 190.263 980.437 194.717 990.667C197.035 978.639 200.208 965.729 204.448 948.929L217.779 896.078H260.548L223.941 1029.43C220.128 1043.48 210.396 1050.28 199.384 1050.28C188.158 1050.28 180.532 1044.17 175.254 1034.17L152.558 991.288Z" fill="#FF5C00"/>
<path d="M313.201 1047.77L339.649 1008.77H375.218C383.699 1008.77 393.644 1008.77 400.416 1009.23C396.603 1003.77 390.685 994.491 386.017 987.235L360.606 947.098L294.135 1047.8H242.275L333.06 910.59C338.978 901.732 347.672 893.594 361.43 893.594C374.547 893.594 383.241 901.079 389.373 910.59L477.839 1047.8H313.201V1047.77Z" fill="#FF5C00"/>
<path d="M646.106 896.046L562.094 997.629V1047.73H518.074V997.4L431.713 896.046H488.027L521.888 938.209C526.341 943.667 538.178 957.492 541.137 962.036C543.882 957.721 548.763 951.152 558.921 938.013L591.105 896.078H646.106V896.046Z" fill="#FF5C00"/>
<path d="M863.672 896.046L779.659 997.629V1047.73H735.64V997.4L649.279 896.046H705.592L739.453 938.209C743.907 943.667 755.743 957.492 758.702 962.036C761.448 957.721 766.329 951.152 776.487 938.013L808.67 896.078H863.672V896.046Z" fill="#FF5C00"/>
<path d="M1042.92 1008.77L1014.76 1047.77H878.465V896.046H1042.49L1014.12 935.496H922.484V953.636H1034.65L1009.46 988.118H922.454V1008.74H1042.92V1008.77Z" fill="#4200FF"/>
<path d="M1110.65 1047.77L1137.09 1008.77H1172.66C1181.14 1008.77 1191.09 1008.77 1197.86 1009.23C1194.05 1003.77 1188.13 994.491 1183.46 987.235L1158.05 947.098L1091.58 1047.8H1039.72L1130.51 910.59C1136.42 901.732 1145.12 893.594 1158.88 893.594C1171.99 893.594 1180.69 901.079 1186.82 910.59L1275.28 1047.8H1110.65V1047.77Z" fill="#4200FF"/>
<path d="M1422.16 956.609C1456.67 956.609 1475.3 970.435 1475.3 998.119C1475.3 1029.17 1457.73 1047.77 1414.57 1047.77H1282.72L1310.88 1008.77H1417.98C1428.36 1008.77 1433.02 1005.6 1433.02 997.661C1433.02 989.948 1428.36 986.777 1417.98 986.777H1340.9C1304.5 986.777 1287.76 969.324 1287.76 943.242C1287.76 914.675 1305.54 896.078 1348.49 896.078H1471.46L1443.3 935.528H1345.11C1334.95 935.528 1330.07 938.241 1330.07 945.954C1330.07 953.668 1334.95 956.609 1345.11 956.609H1422.16Z" fill="#4200FF"/>
<path d="M1697.51 896.046L1613.49 997.629V1047.73H1569.48V997.4L1483.11 896.046H1539.43L1573.29 938.209C1577.74 943.667 1589.58 957.492 1592.54 962.036C1595.28 957.721 1600.16 951.152 1610.32 938.013L1642.51 896.078H1697.51V896.046Z" fill="#4200FF"/>
</svg>
